<svg role="img" fill="#eeeeee" version="1.1" id="Layer_1" xmlns="http://www.w3.org/2000/svg" xmlns:xlink="http://www.w3.org/1999/xlink" x="0px" y="0px">
	 <title>Clear</title>
<path d="M50,21.2c-15.9,0-28.9,13-28.9,28.9C21.2,66,34.1,79,50,79C66,79,78.9,66,78.9,50.1C78.9,34.2,66,21.2,50,21.2z M50,75
	c-13.7,0-24.9-11.2-24.9-24.9c0-13.7,11.2-24.9,24.9-24.9c13.7,0,24.9,11.2,24.9,24.9C74.9,63.8,63.8,75,50,75z"/>
<path d="M50,29.2c-11.5,0-20.9,9.4-20.9,20.9c0,1.1,0.9,2,2,2c1.1,0,2-0.9,2-2c0-9.3,7.6-16.9,16.9-16.9c1.1,0,2-0.9,2-2
	C52,30.1,51.1,29.2,50,29.2z"/>
<path d="M48,2.1v10c0,1.1,0.9,2,2,2s2-0.9,2-2v-10c0-1.1-0.9-2-2-2S48,1,48,2.1z"/>
<path d="M17.5,14.7c-0.8-0.8-2-0.8-2.8,0c-0.8,0.8-0.8,2,0,2.8l7.1,7.1c0.4,0.4,0.9,0.6,1.4,0.6c0.5,0,1-0.2,1.4-0.6
	c0.8-0.8,0.8-2,0-2.8L17.5,14.7z"/>
<path d="M12,48.1H2c-1.1,0-2,0.9-2,2c0,1.1,0.9,2,2,2h10c1.1,0,2-0.9,2-2C14,49,13.1,48.1,12,48.1z"/>
<path d="M21.7,75.6l-7.1,7.1c-0.8,0.8-0.8,2,0,2.8c0.4,0.4,0.9,0.6,1.4,0.6c0.5,0,1-0.2,1.4-0.6l7.1-7.1c0.8-0.8,0.8-2,0-2.8
	C23.8,74.8,22.5,74.8,21.7,75.6z"/>
<path d="M50,86.1c-1.1,0-2,0.9-2,2v10c0,1.1,0.9,2,2,2s2-0.9,2-2v-10C52,87,51.1,86.1,50,86.1z"/>
<path d="M78.3,75.6c-0.8-0.8-2-0.8-2.8,0c-0.8,0.8-0.8,2,0,2.8l7.1,7.1C83,85.8,83.5,86,84,86c0.5,0,1-0.2,1.4-0.6
	c0.8-0.8,0.8-2,0-2.8L78.3,75.6z"/>
<path d="M98,48.1h-10c-1.1,0-2,0.9-2,2c0,1.1,0.9,2,2,2h10c1.1,0,2-0.9,2-2C100,49,99.1,48.1,98,48.1z"/>
<path d="M82.6,14.7l-7.1,7.1c-0.8,0.8-0.8,2,0,2.8c0.4,0.4,0.9,0.6,1.4,0.6c0.5,0,1-0.2,1.4-0.6l7.1-7.1c0.8-0.8,0.8-2,0-2.8
	C84.6,14,83.3,14,82.6,14.7z"/>
</svg>
