<svg role="img" fill="#eeeeee" version="1.1" id="Layer_1" xmlns="http://www.w3.org/2000/svg" xmlns:xlink="http://www.w3.org/1999/xlink" x="0px" y="0px"
	 viewBox="0 0 100 100" style="enable-background:new 0 0 100 100;" xml:space="preserve">
	 <title>Clouds</title>
<path d="M91.5,65.6c0.1-1,0.2-2,0.2-3c0-13.8-11.2-25-25-25c-10.6,0-19.9,6.6-23.4,16.3c-3.5-2.5-7.6-3.8-12-3.8
	c-11.5,0-20.8,9.3-20.8,20.8c0,1.4,0.2,2.9,0.5,4.3C4.8,76,0,81.3,0,87.6c0,6.9,5.6,12.5,12.5,12.5h68.8c10.3,0,18.8-8.4,18.8-18.8
	C100,75,96.8,69.1,91.5,65.6z M81.3,95.9H12.5c-4.6,0-8.3-3.7-8.3-8.3c0-4.6,3.7-8.3,8.3-8.3c0.2,0,0.3,0,0.5,0.1l3.7,0.4l-1.1-3.1
	c-0.7-1.8-1-3.8-1-5.7c0-9.2,7.5-16.7,16.7-16.7c4.4,0,8.5,1.7,11.6,4.7l2.7,2.6l0.8-3.6c2.2-9.5,10.5-16.2,20.3-16.2
	c11.5,0,20.8,9.3,20.8,20.8c0,1.2-0.1,2.4-0.4,3.7l-0.3,1.5l1.3,0.7c4.7,2.6,7.6,7.5,7.6,12.8C95.9,89.4,89.3,95.9,81.3,95.9z"/>
<path d="M27.1,8.4c-2.7,0-5.2,1-7.1,2.8c-1.1-0.5-2.2-0.7-3.3-0.7c-3.9,0-7.2,2.7-8.1,6.4C3.7,17.8,0,22.1,0,27.2
	c0,5.7,4.7,10.4,10.4,10.4h20.8c5.7,0,10.4-4.7,10.4-10.4c0-3.3-1.6-6.3-4.2-8.3c0,0,0,0,0,0C37.5,13.1,32.9,8.4,27.1,8.4z
	 M31.3,33.4H10.5c-3.4,0-6.2-2.8-6.2-6.2s2.8-6.2,6.2-6.2h2.1v-2.1c0-2.3,1.9-4.2,4.2-4.2c0.9,0,1.8,0.3,2.5,0.9l1.7,1.3l1.3-1.7
	c1.2-1.6,3-2.5,5-2.5c3.4,0,6.3,2.8,6.3,6.2c0,0.2,0,0.4-0.1,0.6l-0.2,1.6l1.2,0.7c2,1.1,3.2,3.2,3.2,5.4
	C37.5,30.6,34.7,33.4,31.3,33.4z"/>
<path d="M95.9,10.6C95.9,10.5,95.9,10.5,95.9,10.6c0-5.8-4.7-10.5-10.4-10.5c-2.7,0-5.2,1-7.1,2.8c-1.1-0.5-2.2-0.7-3.3-0.7
	c-3.9,0-7.2,2.7-8.1,6.4c-4.9,0.9-8.6,5.1-8.6,10.2c0,5.7,4.7,10.4,10.4,10.4h20.8c5.7,0,10.4-4.7,10.4-10.4
	C100,15.6,98.5,12.5,95.9,10.6z M89.6,25.1H68.8c-3.4,0-6.2-2.8-6.2-6.2s2.8-6.2,6.2-6.2h2.1v-2.1c0-2.3,1.9-4.2,4.2-4.2
	c0.9,0,1.8,0.3,2.5,0.9l1.7,1.3l1.3-1.7c1.2-1.6,3-2.5,5-2.5c3.4,0,6.2,2.8,6.2,6.3c0,0.2,0,0.4-0.1,0.6l-0.2,1.6l1.2,0.7
	c2,1.1,3.2,3.2,3.2,5.4C95.9,22.3,93.1,25.1,89.6,25.1z"/>
</svg>
