<svg role="img" fill="#eeeeee" version="1.1" id="Layer_1" xmlns="http://www.w3.org/2000/svg" xmlns:xlink="http://www.w3.org/1999/xlink" x="0px" y="0px"
	 viewBox="0 0 100 100" style="enable-background:new 0 0 100 100;" xml:space="preserve">
	 <title>Humidity</title>
<path d="M20.3,7.9C23.4,10,26.9,11,30.4,11c3.5,0,7-1,10.1-3.1l1.7-1.2c4.7-3.2,10.9-3.2,15.6,0l2.3-3.4C54-1,46.1-1,39.9,3.2
	l-1.7,1.2c-4.7,3.2-10.9,3.2-15.6,0c-7-4.8-16.5-4-22.6,1.9l2.9,3C7.6,4.8,14.9,4.2,20.3,7.9z"/>
<path d="M77.5,4.4l2.3,3.4c5.4-3.7,12.7-3.1,17.4,1.5l2.9-3C93.9,0.4,84.4-0.4,77.5,4.4z"/>
<path d="M20.3,30.1c6.1,4.2,14.1,4.2,20.2,0l1.7-1.2c4.7-3.2,10.9-3.2,15.6,0l1.7,1.2c3.1,2.1,6.6,3.1,10.1,3.1c3.5,0,7-1,10.1-3.1
	c5.4-3.7,12.7-3.1,17.4,1.5l2.9-3c-6.1-5.9-15.6-6.7-22.6-1.9c-4.7,3.2-10.9,3.2-15.6,0l-1.7-1.2c-6.1-4.2-14.1-4.2-20.2,0l-1.7,1.2
	c-4.7,3.2-10.9,3.2-15.6,0c-7-4.8-16.5-4-22.6,1.9l2.9,3C7.6,27.1,14.9,26.5,20.3,30.1z"/>
<path d="M20.3,52.4c3.1,2.1,6.6,3.1,10.1,3.1c3.5,0,7-1,10.1-3.1l1.7-1.2c4.7-3.2,10.9-3.2,15.6,0l2.3-3.4c-6.1-4.2-14.1-4.2-20.2,0
	L38.2,49c-4.7,3.2-10.9,3.2-15.6,0c-7-4.8-16.5-4-22.6,1.9l2.9,3C7.6,49.4,14.9,48.7,20.3,52.4z"/>
<path d="M77.5,49l2.3,3.4c5.4-3.7,12.7-3.1,17.4,1.5l2.9-3C93.9,45,84.4,44.2,77.5,49z"/>
<path d="M0,73.1l2.9,3c4.7-4.5,12-5.1,17.4-1.5l2.3-3.4C15.6,66.5,6.1,67.3,0,73.1z"/>
<path d="M77.5,71.2c-4.7,3.2-10.9,3.2-15.6,0l-1.7-1.2c-6.1-4.2-14.1-4.2-20.2,0l-1.7,1.2l2.3,3.4l1.7-1.2c4.7-3.2,10.9-3.2,15.6,0
	l1.7,1.2c3.1,2.1,6.6,3.1,10.1,3.1c3.5,0,7-1,10.1-3.1c5.4-3.7,12.7-3.1,17.4,1.5l2.9-3C93.9,67.3,84.4,66.5,77.5,71.2z"/>
<path d="M77.5,93.5c-4.7,3.2-10.9,3.2-15.6,0l-1.7-1.2c-6.1-4.2-14.1-4.2-20.2,0l-1.7,1.2c-4.7,3.2-10.9,3.2-15.6,0
	c-7-4.8-16.5-4-22.6,1.9l2.9,3c4.7-4.5,12-5.1,17.4-1.5c6.1,4.2,14.1,4.2,20.2,0l1.7-1.2c4.7-3.2,10.9-3.2,15.6,0l1.7,1.2
	c3.1,2.1,6.6,3.1,10.1,3.1c3.5,0,7-1,10.1-3.1c5.4-3.7,12.7-3.1,17.4,1.5l2.9-3C93.9,89.5,84.4,88.7,77.5,93.5z"/>
<path d="M20.3,7.9C23.4,10,26.9,11,30.4,11c3.5,0,7-1,10.1-3.1l1.7-1.2c4.7-3.2,10.9-3.2,15.6,0l2.3-3.4C54-1,46.1-1,39.9,3.2
	l-1.7,1.2c-4.7,3.2-10.9,3.2-15.6,0c-7-4.8-16.5-4-22.6,1.9l2.9,3C7.6,4.8,14.9,4.2,20.3,7.9z"/>
<path d="M77.5,4.4l2.3,3.4c5.4-3.7,12.7-3.1,17.4,1.5l2.9-3C93.9,0.4,84.4-0.4,77.5,4.4z"/>
<path d="M20.3,30.1c6.1,4.2,14.1,4.2,20.2,0l1.7-1.2c4.7-3.2,10.9-3.2,15.6,0l1.7,1.2c3.1,2.1,6.6,3.1,10.1,3.1c3.5,0,7-1,10.1-3.1
	c5.4-3.7,12.7-3.1,17.4,1.5l2.9-3c-6.1-5.9-15.6-6.7-22.6-1.9c-4.7,3.2-10.9,3.2-15.6,0l-1.7-1.2c-6.1-4.2-14.1-4.2-20.2,0l-1.7,1.2
	c-4.7,3.2-10.9,3.2-15.6,0c-7-4.8-16.5-4-22.6,1.9l2.9,3C7.6,27.1,14.9,26.5,20.3,30.1z"/>
<path d="M20.3,52.4c3.1,2.1,6.6,3.1,10.1,3.1c3.5,0,7-1,10.1-3.1l1.7-1.2c4.7-3.2,10.9-3.2,15.6,0l2.3-3.4c-6.1-4.2-14.1-4.2-20.2,0
	L38.2,49c-4.7,3.2-10.9,3.2-15.6,0c-7-4.8-16.5-4-22.6,1.9l2.9,3C7.6,49.4,14.9,48.7,20.3,52.4z"/>
<path d="M77.5,49l2.3,3.4c5.4-3.7,12.7-3.1,17.4,1.5l2.9-3C93.9,45,84.4,44.2,77.5,49z"/>
<path d="M0,73.1l2.9,3c4.7-4.5,12-5.1,17.4-1.5l2.3-3.4C15.6,66.5,6.1,67.3,0,73.1z"/>
<path d="M77.5,71.2c-4.7,3.2-10.9,3.2-15.6,0l-1.7-1.2c-6.1-4.2-14.1-4.2-20.2,0l-1.7,1.2l2.3,3.4l1.7-1.2c4.7-3.2,10.9-3.2,15.6,0
	l1.7,1.2c3.1,2.1,6.6,3.1,10.1,3.1c3.5,0,7-1,10.1-3.1c5.4-3.7,12.7-3.1,17.4,1.5l2.9-3C93.9,67.3,84.4,66.5,77.5,71.2z"/>
<path d="M77.5,93.5c-4.7,3.2-10.9,3.2-15.6,0l-1.7-1.2c-6.1-4.2-14.1-4.2-20.2,0l-1.7,1.2c-4.7,3.2-10.9,3.2-15.6,0
	c-7-4.8-16.5-4-22.6,1.9l2.9,3c4.7-4.5,12-5.1,17.4-1.5c6.1,4.2,14.1,4.2,20.2,0l1.7-1.2c4.7-3.2,10.9-3.2,15.6,0l1.7,1.2
	c3.1,2.1,6.6,3.1,10.1,3.1c3.5,0,7-1,10.1-3.1c5.4-3.7,12.7-3.1,17.4,1.5l2.9-3C93.9,89.5,84.4,88.7,77.5,93.5z"/>
</svg>
