<svg role="img" fill="#eeeeee" version="1.1" id="Layer_1" xmlns="http://www.w3.org/2000/svg" xmlns:xlink="http://www.w3.org/1999/xlink" x="0px" y="0px"
	 viewBox="0 0 100 100" style="enable-background:new 0 0 100 100;" xml:space="preserve">
	 <title>Mist</title>
<path d="M18.6,63.8h62.9c10.2,0,18.5-7.9,18.5-17.6c0-9.5-7.9-17.2-17.8-17.6C78.6,19.1,68,13.1,57.1,15.2c-4-6-11-9.6-18.6-9.6
	c-12.2,0-22.1,9.4-22.1,21c0,0.7,0,1.4,0.1,2.1C7.3,29.6,0,37.1,0,46.2C0,55.9,8.3,63.8,18.6,63.8z M18.7,32.8
	C18.7,32.8,18.7,32.8,18.7,32.8l0.3,0c0.6,0,1.3-0.3,1.7-0.8c0.4-0.5,0.6-1.2,0.4-1.8c-0.3-1.2-0.4-2.5-0.4-3.6
	c0-9.3,8-16.8,17.9-16.8c6.6,0,12.7,3.4,15.8,8.9c0.5,0.8,1.4,1.2,2.3,1c9.8-2.6,19.5,3,22.1,11.7c0.3,0.9,1.1,1.5,2.1,1.5l0.3,0
	c0.1,0,0.2,0,0.3,0c7.9,0,14.4,6,14.4,13.5c0,7.4-6.4,13.5-14.4,13.5H18.6c-7.9,0-14.4-6-14.4-13.5C4.2,38.8,10.6,32.8,18.7,32.8z"
	/>
<path d="M17.6,78.7c-1.1-0.2-2.3,0-2.7,0.5l-2,2c-0.5,0.5,0,1,1.1,1.2c0.3,0.1,0.5,0.1,0.8,0.1c0.8,0,1.6-0.2,1.9-0.6l2-2
	C19.2,79.4,18.7,78.9,17.6,78.7z"/>
<path d="M11.8,84.7c-1-0.2-2.3,0-2.7,0.5l-2,2c-0.5,0.5,0,1,1.1,1.2c0.3,0.1,0.5,0.1,0.8,0.1c0.8,0,1.6-0.2,1.9-0.6l2-2
	C13.3,85.5,12.8,84.9,11.8,84.7z"/>
<path d="M5.9,90.8c-1.1-0.2-2.3,0-2.7,0.5l-2,2c-0.5,0.5,0,1,1.1,1.2c0.3,0.1,0.5,0.1,0.8,0.1c0.8,0,1.6-0.2,1.9-0.6l2-2
	C7.5,91.5,7,91,5.9,90.8z"/>
<path d="M31.9,78.7c-1.1-0.2-2.3,0-2.7,0.5l-2,2c-0.5,0.5,0,1,1.1,1.2c0.3,0.1,0.5,0.1,0.8,0.1c0.8,0,1.6-0.2,1.9-0.6l2-2
	C33.4,79.4,32.9,78.9,31.9,78.7z"/>
<path d="M26,84.7c-1.1-0.2-2.3,0-2.7,0.5l-2,2c-0.5,0.5,0,1,1.1,1.2c0.3,0.1,0.5,0.1,0.8,0.1c0.8,0,1.6-0.2,1.9-0.6l2-2
	C27.6,85.5,27.1,84.9,26,84.7z"/>
<path d="M20.2,90.8c-1-0.2-2.3,0-2.7,0.5l-2,2c-0.5,0.5,0,1,1.1,1.2c0.3,0.1,0.5,0.1,0.8,0.1c0.8,0,1.6-0.2,1.9-0.6l2-2
	C21.7,91.5,21.2,91,20.2,90.8z"/>
<path d="M46.1,78.7c-1.1-0.2-2.3,0-2.7,0.5l-2,2c-0.5,0.5,0,1,1.1,1.2c0.3,0.1,0.5,0.1,0.8,0.1c0.8,0,1.6-0.2,1.9-0.6l2-2
	C47.7,79.4,47.2,78.9,46.1,78.7z"/>
<path d="M40.3,84.7c-1-0.2-2.3,0-2.7,0.5l-2,2c-0.5,0.5,0,1,1.1,1.2c0.3,0.1,0.5,0.1,0.8,0.1c0.8,0,1.6-0.2,1.9-0.6l2-2
	C41.8,85.5,41.3,84.9,40.3,84.7z"/>
<path d="M34.4,90.8c-1-0.2-2.3,0-2.7,0.5l-2,2c-0.5,0.5,0,1,1.1,1.2c0.3,0.1,0.5,0.1,0.8,0.1c0.8,0,1.6-0.2,1.9-0.6l2-2
	C36,91.5,35.5,91,34.4,90.8z"/>
<path d="M60.4,78.7c-1-0.2-2.3,0-2.7,0.5l-2,2c-0.5,0.5,0,1,1.1,1.2c0.3,0.1,0.5,0.1,0.8,0.1c0.8,0,1.6-0.2,1.9-0.6l2-2
	C61.9,79.4,61.4,78.9,60.4,78.7z"/>
<path d="M54.5,84.7c-1.1-0.2-2.3,0-2.7,0.5l-2,2c-0.5,0.5,0,1,1.1,1.2c0.3,0.1,0.5,0.1,0.8,0.1c0.8,0,1.6-0.2,1.9-0.6l2-2
	C56.1,85.5,55.6,84.9,54.5,84.7z"/>
<path d="M48.7,90.8c-1.1-0.2-2.3,0-2.7,0.5l-2,2c-0.5,0.5,0,1,1.1,1.2c0.3,0.1,0.5,0.1,0.8,0.1c0.8,0,1.6-0.2,1.9-0.6l2-2
	C50.2,91.5,49.7,91,48.7,90.8z"/>
<path d="M71,82.4c0.3,0.1,0.5,0.1,0.8,0.1c0.8,0,1.6-0.2,1.9-0.6l2-2c0.5-0.5,0-1-1.1-1.2c-1.1-0.2-2.3,0-2.7,0.5l-2,2
	C69.4,81.7,69.9,82.2,71,82.4z"/>
<path d="M68.8,84.7c-1-0.2-2.3,0-2.7,0.5l-2,2c-0.5,0.5,0,1,1.1,1.2c0.3,0.1,0.5,0.1,0.8,0.1c0.8,0,1.6-0.2,1.9-0.6l2-2
	C70.3,85.5,69.8,84.9,68.8,84.7z"/>
<path d="M62.9,90.8c-1.1-0.2-2.3,0-2.7,0.5l-2,2c-0.5,0.5,0,1,1.1,1.2c0.3,0.1,0.5,0.1,0.8,0.1c0.8,0,1.6-0.2,1.9-0.6l2-2
	C64.5,91.5,64,91,62.9,90.8z"/>
<path d="M18.6,63.8h62.9c10.2,0,18.5-7.9,18.5-17.6c0-9.5-7.9-17.2-17.8-17.6C78.6,19.1,68,13.1,57.1,15.2c-4-6-11-9.6-18.6-9.6
	c-12.2,0-22.1,9.4-22.1,21c0,0.7,0,1.4,0.1,2.1C7.3,29.6,0,37.1,0,46.2C0,55.9,8.3,63.8,18.6,63.8z M18.7,32.8
	C18.7,32.8,18.7,32.8,18.7,32.8l0.3,0c0.6,0,1.3-0.3,1.7-0.8c0.4-0.5,0.6-1.2,0.4-1.8c-0.3-1.2-0.4-2.5-0.4-3.6
	c0-9.3,8-16.8,17.9-16.8c6.6,0,12.7,3.4,15.8,8.9c0.5,0.8,1.4,1.2,2.3,1c9.8-2.6,19.5,3,22.1,11.7c0.3,0.9,1.1,1.5,2.1,1.5l0.3,0
	c0.1,0,0.2,0,0.3,0c7.9,0,14.4,6,14.4,13.5c0,7.4-6.4,13.5-14.4,13.5H18.6c-7.9,0-14.4-6-14.4-13.5C4.2,38.8,10.6,32.8,18.7,32.8z"
	/>
<path d="M17.6,78.7c-1.1-0.2-2.3,0-2.7,0.5l-2,2c-0.5,0.5,0,1,1.1,1.2c0.3,0.1,0.5,0.1,0.8,0.1c0.8,0,1.6-0.2,1.9-0.6l2-2
	C19.2,79.4,18.7,78.9,17.6,78.7z"/>
<path d="M5.9,90.8c-1.1-0.2-2.3,0-2.7,0.5l-2,2c-0.5,0.5,0,1,1.1,1.2c0.3,0.1,0.5,0.1,0.8,0.1c0.8,0,1.6-0.2,1.9-0.6l2-2
	C7.5,91.5,7,91,5.9,90.8z"/>
<path d="M26,84.7c-1.1-0.2-2.3,0-2.7,0.5l-2,2c-0.5,0.5,0,1,1.1,1.2c0.3,0.1,0.5,0.1,0.8,0.1c0.8,0,1.6-0.2,1.9-0.6l2-2
	C27.6,85.5,27.1,84.9,26,84.7z"/>
<path d="M46.1,78.7c-1.1-0.2-2.3,0-2.7,0.5l-2,2c-0.5,0.5,0,1,1.1,1.2c0.3,0.1,0.5,0.1,0.8,0.1c0.8,0,1.6-0.2,1.9-0.6l2-2
	C47.7,79.4,47.2,78.9,46.1,78.7z"/>
<path d="M34.4,90.8c-1-0.2-2.3,0-2.7,0.5l-2,2c-0.5,0.5,0,1,1.1,1.2c0.3,0.1,0.5,0.1,0.8,0.1c0.8,0,1.6-0.2,1.9-0.6l2-2
	C36,91.5,35.5,91,34.4,90.8z"/>
<path d="M54.5,84.7c-1.1-0.2-2.3,0-2.7,0.5l-2,2c-0.5,0.5,0,1,1.1,1.2c0.3,0.1,0.5,0.1,0.8,0.1c0.8,0,1.6-0.2,1.9-0.6l2-2
	C56.1,85.5,55.6,84.9,54.5,84.7z"/>
<path d="M71,82.4c0.3,0.1,0.5,0.1,0.8,0.1c0.8,0,1.6-0.2,1.9-0.6l2-2c0.5-0.5,0-1-1.1-1.2c-1.1-0.2-2.3,0-2.7,0.5l-2,2
	C69.4,81.7,69.9,82.2,71,82.4z"/>
<path d="M62.9,90.8c-1.1-0.2-2.3,0-2.7,0.5l-2,2c-0.5,0.5,0,1,1.1,1.2c0.3,0.1,0.5,0.1,0.8,0.1c0.8,0,1.6-0.2,1.9-0.6l2-2
	C64.5,91.5,64,91,62.9,90.8z"/>
<path d="M29.2,66.7c-1.1-0.2-2.3,0-2.7,0.5l-2,2c-0.5,0.5,0,1,1.1,1.2c0.3,0.1,0.5,0.1,0.8,0.1c0.8,0,1.6-0.2,1.9-0.6l2-2
	C30.8,67.5,30.3,66.9,29.2,66.7z"/>
<path d="M23.4,72.8c-1-0.2-2.3,0-2.7,0.5l-2,2c-0.5,0.5,0,1,1.1,1.2c0.3,0.1,0.5,0.1,0.8,0.1c0.8,0,1.6-0.2,1.9-0.6l2-2
	C24.9,73.5,24.4,73,23.4,72.8z"/>
<path d="M17.5,78.8c-1.1-0.2-2.3,0-2.7,0.5l-2,2c-0.5,0.5,0,1,1.1,1.2c0.3,0.1,0.5,0.1,0.8,0.1c0.8,0,1.6-0.2,1.9-0.6l2-2
	C19.1,79.6,18.6,79,17.5,78.8z"/>
<path d="M43.5,66.7c-1.1-0.2-2.3,0-2.7,0.5l-2,2c-0.5,0.5,0,1,1.1,1.2c0.3,0.1,0.5,0.1,0.8,0.1c0.8,0,1.6-0.2,1.9-0.6l2-2
	C45,67.5,44.5,66.9,43.5,66.7z"/>
<path d="M37.6,72.8c-1.1-0.2-2.3,0-2.7,0.5l-2,2c-0.5,0.5,0,1,1.1,1.2c0.3,0.1,0.5,0.1,0.8,0.1c0.8,0,1.6-0.2,1.9-0.6l2-2
	C39.2,73.5,38.7,73,37.6,72.8z"/>
<path d="M31.8,78.8c-1-0.2-2.3,0-2.7,0.5l-2,2c-0.5,0.5,0,1,1.1,1.2c0.3,0.1,0.5,0.1,0.8,0.1c0.8,0,1.6-0.2,1.9-0.6l2-2
	C33.3,79.6,32.8,79,31.8,78.8z"/>
<path d="M57.7,66.7c-1.1-0.2-2.3,0-2.7,0.5l-2,2c-0.5,0.5,0,1,1.1,1.2c0.3,0.1,0.5,0.1,0.8,0.1c0.8,0,1.6-0.2,1.9-0.6l2-2
	C59.2,67.5,58.8,66.9,57.7,66.7z"/>
<path d="M51.8,72.8c-1-0.2-2.3,0-2.7,0.5l-2,2c-0.5,0.5,0,1,1.1,1.2c0.3,0.1,0.5,0.1,0.8,0.1c0.8,0,1.6-0.2,1.9-0.6l2-2
	C53.4,73.5,52.9,73,51.8,72.8z"/>
<path d="M46,78.8c-1-0.2-2.3,0-2.7,0.5l-2,2c-0.5,0.5,0,1,1.1,1.2c0.3,0.1,0.5,0.1,0.8,0.1c0.8,0,1.6-0.2,1.9-0.6l2-2
	C47.5,79.6,47.1,79,46,78.8z"/>
<path d="M71.9,66.7c-1-0.2-2.3,0-2.7,0.5l-2,2c-0.5,0.5,0,1,1.1,1.2c0.3,0.1,0.5,0.1,0.8,0.1c0.8,0,1.6-0.2,1.9-0.6l2-2
	C73.5,67.5,73,66.9,71.9,66.7z"/>
<path d="M66.1,72.8c-1.1-0.2-2.3,0-2.7,0.5l-2,2c-0.5,0.5,0,1,1.1,1.2c0.3,0.1,0.5,0.1,0.8,0.1c0.8,0,1.6-0.2,1.9-0.6l2-2
	C67.6,73.5,67.2,73,66.1,72.8z"/>
<path d="M60.2,78.8c-1.1-0.2-2.3,0-2.7,0.5l-2,2c-0.5,0.5,0,1,1.1,1.2c0.3,0.1,0.5,0.1,0.8,0.1c0.8,0,1.6-0.2,1.9-0.6l2-2
	C61.8,79.6,61.3,79,60.2,78.8z"/>
<path d="M82.6,70.5c0.3,0.1,0.5,0.1,0.8,0.1c0.8,0,1.6-0.2,1.9-0.6l2-2c0.5-0.5,0-1-1.1-1.2c-1.1-0.2-2.3,0-2.7,0.5l-2,2
	C81,69.7,81.5,70.3,82.6,70.5z"/>
<path d="M80.3,72.8c-1-0.2-2.3,0-2.7,0.5l-2,2c-0.5,0.5,0,1,1.1,1.2c0.3,0.1,0.5,0.1,0.8,0.1c0.8,0,1.6-0.2,1.9-0.6l2-2
	C81.9,73.5,81.4,73,80.3,72.8z"/>
<path d="M74.5,78.8c-1.1-0.2-2.3,0-2.7,0.5l-2,2c-0.5,0.5,0,1,1.1,1.2c0.3,0.1,0.5,0.1,0.8,0.1c0.8,0,1.6-0.2,1.9-0.6l2-2
	C76,79.6,75.5,79,74.5,78.8z"/>
<path d="M29.2,66.7c-1.1-0.2-2.3,0-2.7,0.5l-2,2c-0.5,0.5,0,1,1.1,1.2c0.3,0.1,0.5,0.1,0.8,0.1c0.8,0,1.6-0.2,1.9-0.6l2-2
	C30.8,67.5,30.3,66.9,29.2,66.7z"/>
<path d="M17.5,78.8c-1.1-0.2-2.3,0-2.7,0.5l-2,2c-0.5,0.5,0,1,1.1,1.2c0.3,0.1,0.5,0.1,0.8,0.1c0.8,0,1.6-0.2,1.9-0.6l2-2
	C19.1,79.6,18.6,79,17.5,78.8z"/>
<path d="M37.6,72.8c-1.1-0.2-2.3,0-2.7,0.5l-2,2c-0.5,0.5,0,1,1.1,1.2c0.3,0.1,0.5,0.1,0.8,0.1c0.8,0,1.6-0.2,1.9-0.6l2-2
	C39.2,73.5,38.7,73,37.6,72.8z"/>
<path d="M57.7,66.7c-1.1-0.2-2.3,0-2.7,0.5l-2,2c-0.5,0.5,0,1,1.1,1.2c0.3,0.1,0.5,0.1,0.8,0.1c0.8,0,1.6-0.2,1.9-0.6l2-2
	C59.2,67.5,58.8,66.9,57.7,66.7z"/>
<path d="M46,78.8c-1-0.2-2.3,0-2.7,0.5l-2,2c-0.5,0.5,0,1,1.1,1.2c0.3,0.1,0.5,0.1,0.8,0.1c0.8,0,1.6-0.2,1.9-0.6l2-2
	C47.5,79.6,47.1,79,46,78.8z"/>
<path d="M66.1,72.8c-1.1-0.2-2.3,0-2.7,0.5l-2,2c-0.5,0.5,0,1,1.1,1.2c0.3,0.1,0.5,0.1,0.8,0.1c0.8,0,1.6-0.2,1.9-0.6l2-2
	C67.6,73.5,67.2,73,66.1,72.8z"/>
<path d="M82.6,70.5c0.3,0.1,0.5,0.1,0.8,0.1c0.8,0,1.6-0.2,1.9-0.6l2-2c0.5-0.5,0-1-1.1-1.2c-1.1-0.2-2.3,0-2.7,0.5l-2,2
	C81,69.7,81.5,70.3,82.6,70.5z"/>
<path d="M74.5,78.8c-1.1-0.2-2.3,0-2.7,0.5l-2,2c-0.5,0.5,0,1,1.1,1.2c0.3,0.1,0.5,0.1,0.8,0.1c0.8,0,1.6-0.2,1.9-0.6l2-2
	C76,79.6,75.5,79,74.5,78.8z"/>
</svg>
