<svg role="img" fill="#eeeeee" version="1.1" id="Layer_1" xmlns="http://www.w3.org/2000/svg" xmlns:xlink="http://www.w3.org/1999/xlink" x="0px" y="0px"
	 viewBox="0 0 100 100" style="enable-background:new 0 0 100 100;" xml:space="preserve">
	 <title>Rain</title>
<path d="M18.6,58.3h62.9c10.2,0,18.5-7.9,18.5-17.6c0-9.5-7.9-17.2-17.8-17.6C78.6,13.6,68,7.6,57.1,9.7c-4-6-11-9.6-18.6-9.6
	c-12.2,0-22.1,9.4-22.1,21c0,0.7,0,1.4,0.1,2.1C7.3,24.1,0,31.6,0,40.7C0,50.4,8.3,58.3,18.6,58.3z M18.7,27.3
	C18.7,27.3,18.7,27.3,18.7,27.3l0.3,0c0.6,0,1.3-0.3,1.7-0.8c0.4-0.5,0.6-1.2,0.4-1.8c-0.3-1.2-0.4-2.5-0.4-3.6
	c0-9.3,8-16.8,17.9-16.8c6.6,0,12.7,3.4,15.8,8.9c0.5,0.8,1.4,1.2,2.3,1c9.8-2.6,19.5,3,22.1,11.7c0.3,0.9,1.1,1.5,2.1,1.5l0.3,0
	c0.1,0,0.2,0,0.3,0c7.9,0,14.4,6,14.4,13.5c0,7.4-6.4,13.5-14.4,13.5H18.6c-7.9,0-14.4-6-14.4-13.5C4.2,33.3,10.6,27.3,18.7,27.3z"
	/>
<path d="M17.6,64.1c-1.1-0.4-2.3,0-2.7,1.1l-2,4.6c-0.5,1.1,0,2.3,1.1,2.7c0.3,0.1,0.5,0.2,0.8,0.2c0.8,0,1.6-0.5,1.9-1.3l2-4.6
	C19.2,65.8,18.7,64.5,17.6,64.1z"/>
<path d="M11.8,77.8c-1-0.4-2.3,0-2.7,1.1l-2,4.6c-0.5,1.1,0,2.3,1.1,2.7c0.3,0.1,0.5,0.2,0.8,0.2c0.8,0,1.6-0.5,1.9-1.3l2-4.6
	C13.3,79.4,12.8,78.2,11.8,77.8z"/>
<path d="M5.9,91.5c-1.1-0.4-2.3,0-2.7,1.1l-2,4.6c-0.5,1.1,0,2.3,1.1,2.7c0.3,0.1,0.5,0.2,0.8,0.2c0.8,0,1.6-0.5,1.9-1.3l2-4.6
	C7.5,93.1,7,91.9,5.9,91.5z"/>
<path d="M31.9,64.1c-1.1-0.4-2.3,0-2.7,1.1l-2,4.6c-0.5,1.1,0,2.3,1.1,2.7c0.3,0.1,0.5,0.2,0.8,0.2c0.8,0,1.6-0.5,1.9-1.3l2-4.6
	C33.4,65.8,32.9,64.5,31.9,64.1z"/>
<path d="M26,77.8c-1.1-0.5-2.3,0-2.7,1.1l-2,4.6c-0.5,1.1,0,2.3,1.1,2.7c0.3,0.1,0.5,0.2,0.8,0.2c0.8,0,1.6-0.5,1.9-1.3l2-4.6
	C27.6,79.4,27.1,78.2,26,77.8z"/>
<path d="M20.2,91.5c-1-0.4-2.3,0-2.7,1.1l-2,4.6c-0.5,1.1,0,2.3,1.1,2.7c0.3,0.1,0.5,0.2,0.8,0.2c0.8,0,1.6-0.5,1.9-1.3l2-4.6
	C21.7,93.1,21.2,91.9,20.2,91.5z"/>
<path d="M46.1,64.1c-1.1-0.4-2.3,0-2.7,1.1l-2,4.6c-0.5,1.1,0,2.3,1.1,2.7c0.3,0.1,0.5,0.2,0.8,0.2c0.8,0,1.6-0.5,1.9-1.3l2-4.6
	C47.7,65.8,47.2,64.5,46.1,64.1z"/>
<path d="M40.3,77.8c-1-0.4-2.3,0-2.7,1.1l-2,4.6c-0.5,1.1,0,2.3,1.1,2.7c0.3,0.1,0.5,0.2,0.8,0.2c0.8,0,1.6-0.5,1.9-1.3l2-4.6
	C41.8,79.4,41.3,78.2,40.3,77.8z"/>
<path d="M34.4,91.5c-1-0.4-2.3,0-2.7,1.1l-2,4.6c-0.5,1.1,0,2.3,1.1,2.7c0.3,0.1,0.5,0.2,0.8,0.2c0.8,0,1.6-0.5,1.9-1.3l2-4.6
	C36,93.1,35.5,91.9,34.4,91.5z"/>
<path d="M60.4,64.1c-1-0.4-2.3,0-2.7,1.1l-2,4.6c-0.5,1.1,0,2.3,1.1,2.7c0.3,0.1,0.5,0.2,0.8,0.2c0.8,0,1.6-0.5,1.9-1.3l2-4.6
	C61.9,65.8,61.4,64.5,60.4,64.1z"/>
<path d="M54.5,77.8c-1.1-0.4-2.3,0-2.7,1.1l-2,4.6c-0.5,1.1,0,2.3,1.1,2.7c0.3,0.1,0.5,0.2,0.8,0.2c0.8,0,1.6-0.5,1.9-1.3l2-4.6
	C56.1,79.4,55.6,78.2,54.5,77.8z"/>
<path d="M48.7,91.5c-1.1-0.4-2.3,0-2.7,1.1l-2,4.6c-0.5,1.1,0,2.3,1.1,2.7c0.3,0.1,0.5,0.2,0.8,0.2c0.8,0,1.6-0.5,1.9-1.3l2-4.6
	C50.2,93.1,49.7,91.9,48.7,91.5z"/>
<path d="M71,72.6c0.3,0.1,0.5,0.2,0.8,0.2c0.8,0,1.6-0.5,1.9-1.3l2-4.6c0.5-1.1,0-2.3-1.1-2.7c-1.1-0.4-2.3,0-2.7,1.1l-2,4.6
	C69.4,70.9,69.9,72.1,71,72.6z"/>
<path d="M68.8,77.8c-1-0.4-2.3,0-2.7,1.1l-2,4.6c-0.5,1.1,0,2.3,1.1,2.7c0.3,0.1,0.5,0.2,0.8,0.2c0.8,0,1.6-0.5,1.9-1.3l2-4.6
	C70.3,79.4,69.8,78.2,68.8,77.8z"/>
<path d="M62.9,91.5c-1.1-0.5-2.3,0-2.7,1.1l-2,4.6c-0.5,1.1,0,2.3,1.1,2.7c0.3,0.1,0.5,0.2,0.8,0.2c0.8,0,1.6-0.5,1.9-1.3l2-4.6
	C64.5,93.1,64,91.9,62.9,91.5z"/>
</svg>
