<svg role="img" fill="#eeeeee" version="1.1" id="Layer_1" xmlns="http://www.w3.org/2000/svg" xmlns:xlink="http://www.w3.org/1999/xlink" x="0px" y="0px"
	 viewBox="0 0 35 35" style="enable-background:new 0 0 35 35;" xml:space="preserve">
	 <title>Search</title>
<path d="M13.8,27.5c2.3,0,4.6-0.6,6.6-1.7l6.1,7.4c0.9,1,2.1,1.7,3.5,1.8c0.1,0,0.2,0,0.2,0c1.3,0,2.5-0.5,3.4-1.4
	c1-1,1.5-2.3,1.4-3.6c-0.1-1.4-0.7-2.6-1.8-3.5l-7.4-6.1c2.9-5.2,2.1-11.9-2.3-16.4C18.1-1.3,9.4-1.3,4,4s-5.4,14.1,0,19.5
	C6.7,26.2,10.2,27.5,13.8,27.5z M32.3,27.6c0.7,0.6,1.2,1.5,1.2,2.4c0,0.9-0.3,1.9-1,2.5c-0.7,0.7-1.6,1-2.5,1c-1,0-1.8-0.5-2.4-1.2
	l-6-7.3c0.7-0.5,1.3-1,1.9-1.5c0.6-0.6,1.1-1.2,1.5-1.9L32.3,27.6z M5.1,5.1c2.4-2.4,5.6-3.6,8.7-3.6s6.3,1.2,8.7,3.6
	c4.8,4.8,4.8,12.6,0,17.4c-4.8,4.8-12.6,4.8-17.4,0C0.3,17.7,0.3,9.9,5.1,5.1z"/>
<path d="M30.2,32.6c0.6,0,1.2-0.2,1.7-0.7c0.9-0.9,0.9-2.4,0-3.3c-0.9-0.9-2.4-0.9-3.3,0c-0.9,0.9-0.9,2.4,0,3.3
	C29,32.3,29.6,32.6,30.2,32.6z M29.6,29.6c0.2-0.2,0.4-0.3,0.6-0.3c0.2,0,0.5,0.1,0.6,0.3c0.3,0.3,0.3,0.9,0,1.3
	c-0.3,0.3-0.9,0.3-1.3,0C29.2,30.5,29.2,29.9,29.6,29.6z"/>
<path d="M13.8,4.5c2.5,0,4.8,1,6.6,2.7c1.8,1.8,2.7,4.1,2.7,6.6c0,0.4,0.3,0.7,0.7,0.7c0.4,0,0.7-0.3,0.7-0.7c0-2.9-1.1-5.6-3.2-7.6
	c-2-2-4.7-3.2-7.6-3.2C13.4,3,13,3.3,13,3.7S13.4,4.5,13.8,4.5z"/>
</svg>
