<svg role="img" fill="#eeeeee" version="1.1" id="Layer_1" xmlns="http://www.w3.org/2000/svg" xmlns:xlink="http://www.w3.org/1999/xlink" x="0px" y="0px"
	 viewBox="0 0 100 100" style="enable-background:new 0 0 100 100;" xml:space="preserve">
	 <title>Snow</title>
<path d="M98,48.1H82.9L89,42c0.8-0.8,0.8-2,0-2.8s-2-0.8-2.8,0l-9,8.9H54.9l15.8-15.8h12.7c1.1,0,2-0.9,2-2s-0.9-2-2-2h-8.7
	l10.7-10.7c0.8-0.8,0.8-2,0-2.8s-2-0.8-2.8,0L71.9,25.5v-8.7c0-1.1-0.9-2-2-2s-2,0.9-2,2v12.7L52,45.3V22.9l9-9c0.8-0.8,0.8-2,0-2.8
	c-0.8-0.8-2-0.8-2.8,0L52,17.2V2.1c0-1.1-0.9-2-2-2s-2,0.9-2,2v15.1l-6.1-6.1c-0.8-0.8-2-0.8-2.8,0s-0.8,2,0,2.8l8.9,9v22.4
	L32.2,29.4V16.8c0-1.1-0.9-2-2-2s-2,0.9-2,2v8.7L17.5,14.7c-0.8-0.8-2-0.8-2.8,0s-0.8,2,0,2.8l10.7,10.7h-8.7c-1.1,0-2,0.9-2,2
	s0.9,2,2,2h12.7l15.8,15.8H22.8l-9-9c-0.8-0.8-2-0.8-2.8,0s-0.8,2,0,2.8l6.1,6.1H2c-1.1,0-2,0.9-2,2s0.9,2,2,2h15.1l-6.1,6.1
	c-0.8,0.8-0.8,2,0,2.8c0.4,0.4,0.9,0.6,1.4,0.6s1-0.2,1.4-0.6l8.9-8.9h22.4L29.4,67.9H16.7c-1.1,0-2,0.9-2,2s0.9,2,2,2h8.7
	L14.7,82.6c-0.8,0.8-0.8,2,0,2.8c0.4,0.4,0.9,0.6,1.4,0.6c0.5,0,1-0.2,1.4-0.6l10.7-10.7v8.7c0,1.1,0.9,2,2,2s2-0.9,2-2V70.7
	L48,54.9v22.4l-9,9c-0.8,0.8-0.8,2,0,2.8s2,0.8,2.8,0L48,83v15.1c0,1.1,0.9,2,2,2s2-0.9,2-2V83l6.1,6.1c0.4,0.4,0.9,0.6,1.4,0.6
	s1-0.2,1.4-0.6c0.8-0.8,0.8-2,0-2.8l-9-9V54.9l15.8,15.8v12.7c0,1.1,0.9,2,2,2s2-0.9,2-2v-8.7l10.7,10.7C83,85.9,83.5,86,84,86
	s1-0.2,1.4-0.6c0.8-0.8,0.8-2,0-2.8L74.7,71.9h8.7c1.1,0,2-0.9,2-2s-0.9-2-2-2H70.7L54.9,52.1h22.4l9,9c0.4,0.4,0.9,0.6,1.4,0.6
	s1-0.2,1.4-0.6c0.8-0.8,0.8-2,0-2.8l-6.1-6.1H98c1.1,0,2-0.9,2-2S99.1,48.1,98,48.1z"/>
</svg>
