<svg role="img" fill="#eeeeee" version="1.1" id="Layer_1" xmlns="http://www.w3.org/2000/svg" xmlns:xlink="http://www.w3.org/1999/xlink" x="0px" y="0px"
	 viewBox="0 0 100 100" style="enable-background:new 0 0 100 100;" xml:space="preserve">
	 <title>Sunset</title>
<path d="M24.1,57.3c0-1.1-0.9-2-2-2H2c-1.1,0-2,0.9-2,2s0.9,2,2,2h20C23.2,59.3,24.1,58.4,24.1,57.3z"/>
<path d="M14.8,44.9l8.6,3.5c0.3,0.1,0.5,0.2,0.8,0.2c0.8,0,1.5-0.5,1.8-1.2c0.4-1-0.1-2.2-1.1-2.6l-8.6-3.6c-1-0.4-2.2,0.1-2.6,1.1
	S13.8,44.5,14.8,44.9z"/>
<path d="M39.3,33.6c0.2,0,0.5,0,0.8-0.2c1-0.4,1.5-1.6,1.1-2.6l-3.6-8.6c-0.4-1-1.6-1.5-2.6-1.1c-1,0.4-1.5,1.6-1.1,2.6l3.6,8.5
	C37.8,33.1,38.5,33.6,39.3,33.6z"/>
<path d="M52,29.5V9.6c0-1.1-0.9-2-2-2s-2,0.9-2,2v19.9c0,1.1,0.9,2,2,2C51.1,31.5,52,30.6,52,29.5z"/>
<path d="M53.8,88.6h-7.5c-1.1,0-2,0.9-2,2c0,1.1,0.9,2,2,2h7.5c1.1,0,2-0.9,2-2C55.8,89.5,54.9,88.6,53.8,88.6z"/>
<path d="M17.5,22.1c-0.8-0.8-2-0.8-2.8,0c-0.8,0.8-0.8,2,0,2.8L28.8,39c0.4,0.4,0.9,0.6,1.4,0.6c0.5,0,1-0.2,1.4-0.6
	c0.8-0.8,0.8-2,0-2.8L17.5,22.1z"/>
<path d="M69.8,72H30.3c-1.1,0-2,0.9-2,2s0.9,2,2,2h39.6c1.1,0,2-0.9,2-2C71.8,72.8,70.9,72,69.8,72z"/>
<path d="M82.6,22.1L68.4,36.2c-0.8,0.8-0.8,2,0,2.8c0.4,0.4,0.9,0.6,1.4,0.6c0.5,0,1-0.2,1.4-0.6L85.4,25c0.8-0.8,0.8-2,0-2.8
	C84.6,21.4,83.3,21.4,82.6,22.1z"/>
<path d="M59.6,80.3H40.4c-1.1,0-2,0.9-2,2c0,1.1,0.9,2,2,2h19.2c1.1,0,2-0.9,2-2C61.6,81.2,60.8,80.3,59.6,80.3z"/>
<path d="M98,55.3H78c-1.1,0-2,0.9-2,2s0.9,2,2,2h20c1.1,0,2-0.9,2-2C100,56.2,99.1,55.3,98,55.3z"/>
<path d="M78.2,63.6H21.8c-1.1,0-2,0.9-2,2s0.9,2,2,2h56.4c1.1,0,2-0.9,2-2C80.2,64.5,79.3,63.6,78.2,63.6z"/>
<path d="M60.7,33.6c0.8,0,1.5-0.5,1.8-1.2l3.6-8.5c0.4-1-0.1-2.2-1.1-2.6c-1-0.4-2.2,0.1-2.6,1.1l-3.6,8.6c-0.4,1,0.1,2.2,1.1,2.6
	C60.2,33.5,60.5,33.6,60.7,33.6z"/>
<path d="M83.7,41.3l-8.6,3.6c-1,0.4-1.5,1.6-1.1,2.6c0.3,0.8,1.1,1.2,1.8,1.2c0.3,0,0.5-0.1,0.8-0.2l8.6-3.5c1-0.4,1.5-1.6,1.1-2.6
	C85.9,41.3,84.7,40.8,83.7,41.3z"/>
<path d="M30.2,59.3h39.7c1.1,0,2-0.9,2-2c0-12-9.8-21.7-21.9-21.7s-21.9,9.7-21.9,21.7C28.2,58.4,29.1,59.3,30.2,59.3z"/>
</svg>
