<svg role="img" fill="#eeeeee" version="1.1" id="Layer_1" xmlns="http://www.w3.org/2000/svg" xmlns:xlink="http://www.w3.org/1999/xlink" x="0px" y="0px"
	 viewBox="0 0 98.9 100" style="enable-background:new 0 0 98.9 100;" xml:space="preserve">
	 <title>Thunderstorm</title>
<path d="M97.9,46.1c3.6-11.9-3.2-24.5-15.1-28.1c-3.8-1.2-7.7-1.3-11.5-0.4C69.6,9.7,63.8,3.3,55.9,1C44-2.6,31.4,4.1,27.8,16
	c-0.2,0.8-0.4,1.6-0.6,2.5C15.9,16.1,4.4,22.8,1,34c-1.7,5.8-1.1,11.9,1.7,17.2c2.8,5.3,7.6,9.2,13.3,10.9c2.1,0.6,4.3,1,6.5,1
	c3.3,0,6.6-0.7,9.6-2.2c1-0.5,1.5-1.7,1-2.8c-0.5-1-1.7-1.5-2.8-1c-4.1,1.9-8.8,2.3-13.2,1c-4.7-1.4-8.6-4.6-10.9-8.9
	s-2.8-9.3-1.4-14C7.9,25.5,18.2,20,27.8,22.9l0.5,0.2c0.6,0.2,1.3,0.1,1.8-0.2c0.5-0.4,0.9-1,0.9-1.6c0.1-1.4,0.3-2.7,0.7-4
	C34.7,7.5,45,2,54.7,5c7,2.1,12.1,8.2,12.9,15.5c0.1,0.6,0.4,1.2,1,1.5c0.5,0.3,1.2,0.4,1.8,0.2c3.6-1.3,7.5-1.4,11.3-0.2
	c9.7,2.9,15.2,13.2,12.3,22.9c-1.4,4.7-4.6,8.6-8.9,10.9c-4.3,2.3-9.3,2.8-14,1.4c-1.1-0.3-2.3,0.3-2.6,1.4
	c-0.3,1.1,0.3,2.3,1.4,2.6c5.8,1.7,11.9,1.1,17.2-1.7C92.3,56.6,96.2,51.9,97.9,46.1z"/>
<path d="M86.4,44.8c0.2,0.1,0.4,0.1,0.6,0.1c0.9,0,1.7-0.6,2-1.5c1-3.4,0.7-7-1-10.1c-1.7-3.1-4.5-5.4-7.8-6.4
	c-1.1-0.3-2.3,0.3-2.6,1.4c-0.3,1.1,0.3,2.3,1.4,2.6c2.3,0.7,4.2,2.3,5.4,4.4c1.1,2.1,1.4,4.6,0.7,6.9
	C84.7,43.3,85.3,44.5,86.4,44.8z"/>
<path d="M9.9,36.7c-0.3,1.1,0.3,2.3,1.4,2.6c0.2,0.1,0.4,0.1,0.6,0.1c0.9,0,1.7-0.6,2-1.5c1.1-3.8,4.7-6.4,8.7-6.4
	c1.2,0,2.1-0.9,2.1-2.1c0-1.2-0.9-2.1-2.1-2.1C16.8,27.3,11.6,31.2,9.9,36.7z"/>
<path d="M32.2,90.5c0.4,0.3,0.8,0.4,1.2,0.4c0.5,0,1-0.2,1.4-0.6l22.3-21.2c0.6-0.6,0.8-1.5,0.5-2.3c-0.3-0.8-1.1-1.3-2-1.3
	l-3.5,0.2l8.6-11.5c0.5-0.6,0.5-1.5,0.2-2.2s-1.1-1.1-1.9-1.1H45.7c-0.7,0-1.4,0.4-1.8,1l-9.9,17.2c-0.4,0.6-0.4,1.4,0,2.1
	c0.4,0.6,1.1,1,1.8,1h2.8l-7,15.7C31.1,88.9,31.4,90,32.2,90.5z M46.9,55.1h8l-8.7,11.7c-0.5,0.6-0.5,1.5-0.2,2.2
	c0.4,0.7,1.1,1.2,1.9,1.1l2.3-0.1L39.6,80.1l4-9c0.3-0.6,0.2-1.4-0.2-2c-0.4-0.6-1-0.9-1.7-0.9h-2.4L46.9,55.1z"/>
<path d="M26.3,82.5c0.8,0,1.5-0.4,1.9-1.1l2.9-5.8c0.5-1,0.1-2.3-0.9-2.8c-1-0.5-2.3-0.1-2.8,0.9l-2.9,5.8c-0.5,1-0.1,2.3,0.9,2.8
	C25.7,82.4,26,82.5,26.3,82.5z"/>
<path d="M19.1,96.9c0.8,0,1.5-0.4,1.9-1.1l2.9-5.8c0.5-1,0.1-2.3-0.9-2.8c-1-0.5-2.3-0.1-2.8,0.9l-2.9,5.8c-0.5,1-0.1,2.3,0.9,2.8
	C18.5,96.8,18.8,96.9,19.1,96.9z"/>
<path d="M67.2,65.8l-3.9,5.2c-0.7,0.9-0.5,2.2,0.4,2.9c0.4,0.3,0.8,0.4,1.2,0.4c0.6,0,1.3-0.3,1.7-0.8l3.9-5.2
	c0.7-0.9,0.5-2.2-0.4-2.9C69.1,64.7,67.8,64.8,67.2,65.8z"/>
<path d="M57.5,78.6l-3.9,5.2c-0.7,0.9-0.5,2.2,0.4,2.9c0.4,0.3,0.8,0.4,1.2,0.4c0.6,0,1.3-0.3,1.7-0.8l3.9-5.2
	c0.7-0.9,0.5-2.2-0.4-2.9C59.5,77.5,58.2,77.7,57.5,78.6z"/>
<path d="M50.7,91.1c-0.9-0.7-2.2-0.5-2.9,0.4l-3.9,5.2c-0.7,0.9-0.5,2.2,0.4,2.9c0.4,0.3,0.8,0.4,1.2,0.4c0.6,0,1.3-0.3,1.7-0.8
	l3.9-5.2C51.8,93.1,51.7,91.8,50.7,91.1z"/>
</svg>
