<svg role="img" fill="#eeeeee" version="1.1" id="Layer_1" xmlns="http://www.w3.org/2000/svg" xmlns:xlink="http://www.w3.org/1999/xlink" x="0px" y="0px"
	 viewBox="0 0 100 100" style="enable-background:new 0 0 100 100;" xml:space="preserve">
	 <title>Wind</title>
<path d="M2,45.9h80.7c9.5,0,17.3-7.8,17.3-17.3c0-9.5-7.8-17.3-17.3-17.3s-17.3,7.8-17.3,17.3c0,1.1,0.9,2,2,2c1.1,0,2-0.9,2-2
	c0-7.3,6-13.3,13.3-13.3c7.3,0,13.3,6,13.3,13.3s-6,13.3-13.3,13.3H2c-1.1,0-2,0.9-2,2S0.9,45.9,2,45.9z"/>
<path d="M85.2,56.3H42.4c-1.1,0-2,0.9-2,2s0.9,2,2,2h42.8c6,0,10.8,4.9,10.8,10.8c0,6-4.9,10.8-10.8,10.8c-6,0-10.8-4.9-10.8-10.8
	c0-1.1-0.9-2-2-2s-2,0.9-2,2C70.4,79.3,77,86,85.2,86S100,79.3,100,71.1S93.4,56.3,85.2,56.3z"/>
<path d="M6.3,68.3c0,1.1,0.9,2,2,2h39c4,0,7.3,3.3,7.3,7.3c0,4-3.3,7.3-7.3,7.3c-4,0-7.3-3.3-7.3-7.3c0-1.1-0.9-2-2-2
	c-1.1,0-2,0.9-2,2c0,6.2,5.1,11.3,11.3,11.3c6.2,0,11.3-5.1,11.3-11.3c0-6.2-5.1-11.3-11.3-11.3h-39C7.2,66.3,6.3,67.2,6.3,68.3z"/>
<path d="M33.5,60.3c1.1,0,2-0.9,2-2s-0.9-2-2-2H29c-1.1,0-2,0.9-2,2s0.9,2,2,2H33.5z"/>
<path d="M17.8,56.3H2.9c-1.1,0-2,0.9-2,2s0.9,2,2,2h14.9c1.1,0,2-0.9,2-2S18.9,56.3,17.8,56.3z"/>
</svg>
